{%- comment -%} Generated by scripts/build-network.py — do not edit. {%- endcomment -%}
<svg class="network-preview" xmlns="http://www.w3.org/2000/svg" viewBox="0 0 535.6 507.4" width="535.6" height="507.4" fill="none" stroke="currentColor" aria-hidden="true" focusable="false">
<g opacity="0.5">
<g stroke-width="0.5" stroke-linecap="round">
<line x1="329" y1="336.1" x2="340" y2="233.5"/>
<line x1="160.4" y1="154.5" x2="197.3" y2="111.3" stroke-width="0.9" stroke-dasharray="3 2.5"/>
<line x1="235.3" y1="218.4" x2="216.3" y2="165" stroke-width="0.9" stroke-dasharray="3 2.5"/>
<line x1="404" y1="400" x2="347.9" y2="389.7"/>
<line x1="404" y1="400" x2="367" y2="443.2"/>
<line x1="85.6" y1="90.4" x2="178.3" y2="57.6"/>
<line x1="68.5" y1="337.7" x2="105.4" y2="294.5"/>
<line x1="218.2" y1="465.7" x2="199.3" y2="412.1" stroke-width="0.9" stroke-dasharray="3 2.5"/>
<line x1="310.2" y1="282.6" x2="383.8" y2="196"/>
<line x1="367" y1="443.2" x2="347.9" y2="389.7"/>
<line x1="458.7" y1="260" x2="495.7" y2="216.6" stroke-width="0.9" stroke-dasharray="3 2.5"/>
<line x1="199.3" y1="412.1" x2="255.1" y2="422.4"/>
<line x1="141.4" y1="100.9" x2="197.3" y2="111.3"/>
<line x1="514.6" y1="270.2" x2="439.7" y2="206.4"/>
<line x1="514.6" y1="270.2" x2="495.7" y2="216.6"/>
<line x1="291.1" y1="228.8" x2="216.3" y2="165"/>
<line x1="327" y1="35.2" x2="383" y2="45.6" stroke-width="0.9" stroke-dasharray="3 2.5"/>
<line x1="234.2" y1="68" x2="271.1" y2="24.8"/>
<line x1="274" y1="476.1" x2="330" y2="486.4"/>
<line x1="383.8" y1="196" x2="340" y2="233.5"/>
<line x1="161.3" y1="304.9" x2="180.4" y2="358.5"/>
<line x1="476.7" y1="162.9" x2="439.7" y2="206.4" stroke-width="0.9" stroke-dasharray="3 2.5"/>
<line x1="421.9" y1="303.2" x2="440.9" y2="356.8" stroke-width="0.9" stroke-dasharray="3 2.5"/>
<line x1="216.3" y1="165" x2="179.4" y2="208"/>
<line x1="179.4" y1="208" x2="142.4" y2="251.4"/>
<line x1="180.4" y1="358.5" x2="143.4" y2="401.6"/>
<line x1="311" y1="432.8" x2="330" y2="486.4"/>
<line x1="67.6" y1="187.3" x2="104.6" y2="144"/>
<line x1="198.3" y1="261.7" x2="142.4" y2="251.4"/>
<line x1="162.3" y1="455.3" x2="143.4" y2="401.6"/>
<line x1="385" y1="346.4" x2="347.9" y2="389.7" stroke-width="0.9" stroke-dasharray="3 2.5"/>
<line x1="495.7" y1="216.6" x2="439.7" y2="206.4"/>
<line x1="402.8" y1="249.7" x2="383.8" y2="196" stroke-width="0.9" stroke-dasharray="3 2.5"/>
<line x1="272.1" y1="175.2" x2="383.8" y2="196" opacity="0.5"/>
<line x1="477.8" y1="313.5" x2="514.6" y2="270.2" opacity="0.5"/>
<line x1="49.5" y1="284.1" x2="105.4" y2="294.5" opacity="0.5"/>
<line x1="365.9" y1="292.9" x2="329" y2="336.1" opacity="0.5"/>
<line x1="326.2" y1="194.5" x2="383.8" y2="196" opacity="0.5"/>
<line x1="30.6" y1="230.5" x2="86.5" y2="240.9" opacity="0.5"/>
<line x1="254.3" y1="271.9" x2="273.2" y2="325.6" opacity="0.5"/>
<line x1="124.4" y1="348" x2="161.3" y2="304.9" opacity="0.5"/>
<line x1="87.4" y1="391.4" x2="124.4" y2="348" opacity="0.5"/>
<line x1="253.3" y1="121.7" x2="197.3" y2="111.3" opacity="0.5"/>
<line x1="217.2" y1="315.3" x2="161.3" y2="304.9" opacity="0.5"/>
</g>
<g fill="var(--bg, #fff)" stroke-width="0.5">
<circle cx="329" cy="336.1" r="3.0"/>
<circle cx="272.1" cy="175.2" r="3.0"/>
<circle cx="160.4" cy="154.5" r="3.0"/>
<circle cx="477.8" cy="313.5" r="3.0"/>
<circle cx="440.9" cy="356.8" r="3.0"/>
<circle cx="49.5" cy="284.1" r="3.0"/>
<circle cx="401.9" cy="99.2" r="3.0"/>
<circle cx="235.3" cy="218.4" r="3.0"/>
<circle cx="404" cy="400" r="3.0"/>
<circle cx="365.9" cy="292.9" r="3.0"/>
<circle cx="85.6" cy="90.4" r="3.0"/>
<circle cx="68.5" cy="337.7" r="3.0"/>
<circle cx="218.2" cy="465.7" r="3.0"/>
<circle cx="310.2" cy="282.6" r="3.0"/>
<circle cx="367" cy="443.2" r="3.0"/>
<circle cx="326.2" cy="194.5" r="3.0"/>
<circle cx="458.7" cy="260" r="3.0"/>
<circle cx="30.6" cy="230.5" r="3.0"/>
<circle cx="199.3" cy="412.1" r="3.0"/>
<circle cx="105.4" cy="294.5" r="3.0"/>
<circle cx="383" cy="45.6" r="3.0"/>
<circle cx="141.4" cy="100.9" r="3.0"/>
<circle cx="514.6" cy="270.2" r="3.0"/>
<circle cx="291.1" cy="228.8" r="3.0"/>
<circle cx="327" cy="35.2" r="3.0"/>
<circle cx="234.2" cy="68" r="3.0"/>
<circle cx="271.1" cy="24.8" r="3.0"/>
<circle cx="236.1" cy="368.9" r="3.0"/>
<circle cx="274" cy="476.1" r="3.0"/>
<circle cx="292.1" cy="379.1" r="3.0"/>
<circle cx="383.8" cy="196" r="3.0"/>
<circle cx="161.3" cy="304.9" r="3.0"/>
<circle cx="476.7" cy="162.9" r="3.0"/>
<circle cx="421.9" cy="303.2" r="3.0"/>
<circle cx="123.5" cy="197.6" r="3.0"/>
<circle cx="254.3" cy="271.9" r="3.0"/>
<circle cx="340" cy="233.5" r="3.0"/>
<circle cx="216.3" cy="165" r="3.0"/>
<circle cx="179.4" cy="208" r="3.0"/>
<circle cx="180.4" cy="358.5" r="3.0"/>
<circle cx="311" cy="432.8" r="3.0"/>
<circle cx="124.4" cy="348" r="3.0"/>
<circle cx="67.6" cy="187.3" r="3.0"/>
<circle cx="197.3" cy="111.3" r="3.0"/>
<circle cx="198.3" cy="261.7" r="3.0"/>
<circle cx="255.1" cy="422.4" r="3.0"/>
<circle cx="162.3" cy="455.3" r="3.0"/>
<circle cx="330" cy="486.4" r="3.0"/>
<circle cx="86.5" cy="240.9" r="3.0"/>
<circle cx="273.2" cy="325.6" r="3.0"/>
<circle cx="347.9" cy="389.7" r="3.0"/>
<circle cx="385" cy="346.4" r="3.0"/>
<circle cx="495.7" cy="216.6" r="3.0"/>
<circle cx="439.7" cy="206.4" r="3.0"/>
<circle cx="142.4" cy="251.4" r="3.0"/>
<circle cx="87.4" cy="391.4" r="3.0"/>
<circle cx="104.6" cy="144" r="3.0"/>
<circle cx="143.4" cy="401.6" r="3.0"/>
<circle cx="402.8" cy="249.7" r="3.0"/>
<circle cx="253.3" cy="121.7" r="3.0"/>
<circle cx="178.3" cy="57.6" r="3.0"/>
<circle cx="217.2" cy="315.3" r="3.0"/>
</g>
</g>
<g stroke-width="0.5" stroke-linecap="round">
<line x1="290.1" y1="78.4" x2="346" y2="88.8"/>
<line x1="346" y1="88.8" x2="420.8" y2="152.8"/>
<line x1="364.8" y1="142.4" x2="420.8" y2="152.8"/>
<line x1="309" y1="132.1" x2="290.1" y2="78.4" opacity="0.5"/>
</g>
<g fill="var(--bg, #fff)" stroke-width="0.5">
<circle cx="290.1" cy="78.4" r="3.0"/>
<circle cx="309" cy="132.1" r="3.0"/>
<circle cx="346" cy="88.8" r="3.0"/>
<circle cx="364.8" cy="142.4" r="3.0"/>
<circle cx="420.8" cy="152.8" r="3.0"/>
</g>
</svg>
