{%- comment -%} Generated by scripts/build-network.py — do not edit. {%- endcomment -%}
<svg class="network-preview" xmlns="http://www.w3.org/2000/svg" viewBox="0 0 529.4 519" width="529.4" height="519" fill="none" stroke="currentColor" aria-hidden="true" focusable="false">
<g stroke-width="0.5" stroke-linecap="round">
<line x1="118.2" y1="138.5" x2="149.2" y2="115.6"/>
<line x1="482.8" y1="167.9" x2="474" y2="207.5"/>
<line x1="393.2" y1="194.9" x2="359.8" y2="192.7" stroke-width="0.9" stroke-dasharray="3 2.5"/>
<line x1="153.1" y1="307.1" x2="166.5" y2="276.9" stroke-width="0.9" stroke-dasharray="3 2.5"/>
<line x1="70.1" y1="243" x2="42.5" y2="215.3"/>
<line x1="70.1" y1="243" x2="80.6" y2="200.9"/>
<line x1="449.2" y1="352.4" x2="466.3" y2="380.6"/>
<line x1="318.9" y1="30.8" x2="287.1" y2="53.5"/>
<line x1="217.4" y1="470.8" x2="236.1" y2="498" stroke-width="0.9" stroke-dasharray="3 2.5"/>
<line x1="202" y1="130.9" x2="186.5" y2="92.1"/>
<line x1="80.6" y1="200.9" x2="42.5" y2="215.3"/>
<line x1="236.1" y1="498" x2="275.6" y2="496.7"/>
<line x1="262.2" y1="328" x2="228.4" y2="339.8"/>
<line x1="364.1" y1="234.6" x2="359.8" y2="192.7"/>
<line x1="401.1" y1="436.8" x2="363.8" y2="428.4"/>
<line x1="401.1" y1="436.8" x2="389.5" y2="402.9"/>
<line x1="137.5" y1="249.9" x2="166.5" y2="276.9"/>
<line x1="279.5" y1="358.2" x2="262.2" y2="328" stroke-width="0.9" stroke-dasharray="3 2.5"/>
<line x1="293.1" y1="316.3" x2="262.2" y2="328" stroke-width="0.9" stroke-dasharray="3 2.5"/>
<line x1="420.5" y1="89.4" x2="394.3" y2="57.8"/>
<line x1="260.3" y1="161.5" x2="298.1" y2="156.4"/>
<line x1="186.5" y1="92.1" x2="149.2" y2="115.6"/>
<line x1="105.4" y1="405" x2="71.8" y2="383.4"/>
<line x1="330.5" y1="421.5" x2="363.8" y2="428.4" stroke-width="0.9" stroke-dasharray="3 2.5"/>
<line x1="389.5" y1="402.9" x2="363.8" y2="428.4"/>
<line x1="378.2" y1="371" x2="389.5" y2="402.9" stroke-width="0.9" stroke-dasharray="3 2.5"/>
<line x1="385.9" y1="310.4" x2="356.1" y2="296.1" stroke-width="0.9" stroke-dasharray="3 2.5"/>
<line x1="166.5" y1="276.9" x2="204.9" y2="267.9"/>
<line x1="204.9" y1="267.9" x2="244.1" y2="256.2"/>
<line x1="71.8" y1="383.4" x2="52.9" y2="349.6"/>
<line x1="300.4" y1="198.1" x2="298.1" y2="156.4"/>
<line x1="350.8" y1="91.8" x2="320.4" y2="104.9"/>
<line x1="474" y1="207.5" x2="450.4" y2="236.4"/>
<line x1="439" y1="273.2" x2="450.4" y2="236.4"/>
<line x1="284.4" y1="254.2" x2="244.1" y2="256.2"/>
<line x1="74.9" y1="317.5" x2="52.9" y2="349.6"/>
<line x1="36.3" y1="182.6" x2="42.5" y2="215.3" stroke-width="0.9" stroke-dasharray="3 2.5"/>
<line x1="158.1" y1="71.5" x2="186.5" y2="92.1" stroke-width="0.9" stroke-dasharray="3 2.5"/>
<line x1="191.3" y1="43.8" x2="186.5" y2="92.1" opacity="0.5"/>
<line x1="382.1" y1="474.3" x2="401.1" y2="436.8" opacity="0.5"/>
<line x1="259" y1="22.3" x2="287.1" y2="53.5" opacity="0.5"/>
<line x1="85.9" y1="111.1" x2="118.2" y2="138.5" opacity="0.5"/>
<line x1="230.2" y1="84.7" x2="186.5" y2="92.1" opacity="0.5"/>
<line x1="204.2" y1="199.8" x2="163.6" y2="192.6" opacity="0.5"/>
<line x1="455.2" y1="137.8" x2="482.8" y2="167.9" opacity="0.5"/>
<line x1="190.5" y1="391.5" x2="232.3" y2="405.8" opacity="0.5"/>
<line x1="129.2" y1="437.3" x2="105.4" y2="405" opacity="0.5"/>
<line x1="159.5" y1="463.5" x2="129.2" y2="437.3" opacity="0.5"/>
<line x1="377.2" y1="149.3" x2="359.8" y2="192.7" opacity="0.5"/>
<line x1="130.5" y1="370.4" x2="105.4" y2="405" opacity="0.5"/>
</g>
<g fill="var(--bg, #fff)" stroke-width="0.5">
<circle cx="118.2" cy="138.5" r="3.0"/>
<circle cx="482.8" cy="167.9" r="3.0"/>
<circle cx="191.3" cy="43.8" r="3.0"/>
<circle cx="393.2" cy="194.9" r="3.0"/>
<circle cx="382.1" cy="474.3" r="3.0"/>
<circle cx="356.1" cy="296.1" r="3.0"/>
<circle cx="259" cy="22.3" r="3.0"/>
<circle cx="489.9" cy="314.3" r="3.0"/>
<circle cx="153.1" cy="307.1" r="3.0"/>
<circle cx="70.1" cy="243" r="3.0"/>
<circle cx="85.9" cy="111.1" r="3.0"/>
<circle cx="449.2" cy="352.4" r="3.0"/>
<circle cx="318.9" cy="30.8" r="3.0"/>
<circle cx="217.4" cy="470.8" r="3.0"/>
<circle cx="202" cy="130.9" r="3.0"/>
<circle cx="80.6" cy="200.9" r="3.0"/>
<circle cx="230.2" cy="84.7" r="3.0"/>
<circle cx="204.2" cy="199.8" r="3.0"/>
<circle cx="236.1" cy="498" r="3.0"/>
<circle cx="287.1" cy="53.5" r="3.0"/>
<circle cx="262.2" cy="328" r="3.0"/>
<circle cx="364.1" cy="234.6" r="3.0"/>
<circle cx="401.1" cy="436.8" r="3.0"/>
<circle cx="137.5" cy="249.9" r="3.0"/>
<circle cx="279.5" cy="358.2" r="3.0"/>
<circle cx="293.1" cy="316.3" r="3.0"/>
<circle cx="455.2" cy="137.8" r="3.0"/>
<circle cx="420.5" cy="89.4" r="3.0"/>
<circle cx="394.3" cy="57.8" r="3.0"/>
<circle cx="284.4" cy="443.9" r="3.0"/>
<circle cx="260.3" cy="161.5" r="3.0"/>
<circle cx="24.4" cy="284.4" r="3.0"/>
<circle cx="186.5" cy="92.1" r="3.0"/>
<circle cx="105.4" cy="405" r="3.0"/>
<circle cx="330.5" cy="421.5" r="3.0"/>
<circle cx="389.5" cy="402.9" r="3.0"/>
<circle cx="378.2" cy="371" r="3.0"/>
<circle cx="385.9" cy="310.4" r="3.0"/>
<circle cx="508.4" cy="261.2" r="3.0"/>
<circle cx="190.5" cy="391.5" r="3.0"/>
<circle cx="149.2" cy="115.6" r="3.0"/>
<circle cx="166.5" cy="276.9" r="3.0"/>
<circle cx="204.9" cy="267.9" r="3.0"/>
<circle cx="71.8" cy="383.4" r="3.0"/>
<circle cx="300.4" cy="198.1" r="3.0"/>
<circle cx="129.2" cy="437.3" r="3.0"/>
<circle cx="350.8" cy="91.8" r="3.0"/>
<circle cx="474" cy="207.5" r="3.0"/>
<circle cx="359.8" cy="192.7" r="3.0"/>
<circle cx="439" cy="273.2" r="3.0"/>
<circle cx="450.4" cy="236.4" r="3.0"/>
<circle cx="284.4" cy="254.2" r="3.0"/>
<circle cx="275.6" cy="496.7" r="3.0"/>
<circle cx="74.9" cy="317.5" r="3.0"/>
<circle cx="298.1" cy="156.4" r="3.0"/>
<circle cx="163.6" cy="192.6" r="3.0"/>
<circle cx="228.4" cy="339.8" r="3.0"/>
<circle cx="232.3" cy="405.8" r="3.0"/>
<circle cx="42.5" cy="215.3" r="3.0"/>
<circle cx="36.3" cy="182.6" r="3.0"/>
<circle cx="363.8" cy="428.4" r="3.0"/>
<circle cx="244.1" cy="256.2" r="3.0"/>
<circle cx="159.5" cy="463.5" r="3.0"/>
<circle cx="320.4" cy="104.9" r="3.0"/>
<circle cx="52.9" cy="349.6" r="3.0"/>
<circle cx="158.1" cy="71.5" r="3.0"/>
<circle cx="377.2" cy="149.3" r="3.0"/>
<circle cx="466.3" cy="380.6" r="3.0"/>
<circle cx="130.5" cy="370.4" r="3.0"/>
</g>
</svg>
