{%- comment -%} Generated by scripts/build-network.py — do not edit. {%- endcomment -%}
<svg class="network-preview" xmlns="http://www.w3.org/2000/svg" viewBox="0 0 604.9 565.1" width="604.9" height="565.1" fill="none" stroke="currentColor" aria-hidden="true" focusable="false">
<g opacity="0.3">
<g stroke-width="0.5" stroke-linecap="round">
<line x1="505.8" y1="355.6" x2="471.7" y2="291"/>
<line x1="223.4" y1="91.4" x2="330.7" y2="158.8"/>
<line x1="106.3" y1="277.2" x2="72.3" y2="212.6" stroke-width="0.9" stroke-dasharray="3 2.5"/>
<line x1="135.5" y1="468.4" x2="62.3" y2="465.4"/>
<line x1="135.5" y1="468.4" x2="101.4" y2="403.7"/>
<line x1="427.8" y1="479.3" x2="466.9" y2="417.5"/>
<line x1="145.3" y1="215.3" x2="111.3" y2="150.6"/>
<line x1="116.1" y1="24.1" x2="150.4" y2="88.8"/>
<line x1="325.3" y1="285.4" x2="364.6" y2="223.5" stroke-width="0.9" stroke-dasharray="3 2.5"/>
<line x1="510.7" y1="229.2" x2="476.6" y2="164.4"/>
<line x1="364.6" y1="223.5" x2="291.6" y2="220.8"/>
<line x1="33.1" y1="274.3" x2="72.3" y2="212.6"/>
<line x1="62.3" y1="465.4" x2="101.4" y2="403.7"/>
<line x1="515.7" y1="102.4" x2="549.7" y2="167.3" stroke-width="0.9" stroke-dasharray="3 2.5"/>
<line x1="369.6" y1="97" x2="442.6" y2="99.7"/>
<line x1="296.4" y1="94.1" x2="262.3" y2="29.4"/>
<line x1="476.6" y1="164.4" x2="471.7" y2="291"/>
<line x1="242.6" y1="536" x2="315.7" y2="538.7"/>
<line x1="174.5" y1="406.5" x2="101.4" y2="403.7" stroke-width="0.9" stroke-dasharray="3 2.5"/>
<line x1="579" y1="358.3" x2="583.9" y2="232" stroke-width="0.9" stroke-dasharray="3 2.5"/>
<line x1="315.7" y1="538.7" x2="354.8" y2="476.6"/>
<line x1="335.5" y1="32.2" x2="262.3" y2="29.4"/>
<line x1="67.1" y1="338.9" x2="140.3" y2="341.8"/>
<line x1="330.7" y1="158.8" x2="257.4" y2="156.1"/>
<line x1="218.3" y1="218" x2="257.4" y2="156.1"/>
<line x1="388.9" y1="541.3" x2="354.8" y2="476.6"/>
<line x1="432.7" y1="352.7" x2="466.9" y2="417.5" stroke-width="0.9" stroke-dasharray="3 2.5"/>
<line x1="437.5" y1="226.2" x2="476.6" y2="164.4" stroke-width="0.9" stroke-dasharray="3 2.5"/>
<line x1="403.6" y1="161.6" x2="476.6" y2="164.4" opacity="0.3"/>
<line x1="77.2" y1="86" x2="150.4" y2="88.8" opacity="0.3"/>
<line x1="544.7" y1="293.8" x2="505.8" y2="355.6" opacity="0.3"/>
<line x1="398.4" y1="288.2" x2="476.6" y2="164.4" opacity="0.3"/>
<line x1="540" y1="420.3" x2="501" y2="482.2" opacity="0.3"/>
<line x1="189.3" y1="26.8" x2="223.4" y2="91.4" opacity="0.3"/>
<line x1="408.6" y1="34.9" x2="442.6" y2="99.7" opacity="0.3"/>
<line x1="169.5" y1="533.1" x2="242.6" y2="536" opacity="0.3"/>
<line x1="208.5" y1="471.2" x2="169.5" y2="533.1" opacity="0.3"/>
<line x1="179.4" y1="279.8" x2="72.3" y2="212.6" opacity="0.3"/>
<line x1="281.6" y1="474" x2="242.6" y2="536" opacity="0.3"/>
</g>
<g fill="var(--bg, #fff)" stroke-width="0.5">
<circle cx="505.8" cy="355.6" r="3.0"/>
<circle cx="223.4" cy="91.4" r="3.0"/>
<circle cx="403.6" cy="161.6" r="3.0"/>
<circle cx="106.3" cy="277.2" r="3.0"/>
<circle cx="135.5" cy="468.4" r="3.0"/>
<circle cx="583.9" cy="232" r="3.0"/>
<circle cx="77.2" cy="86" r="3.0"/>
<circle cx="184.5" cy="153.4" r="3.0"/>
<circle cx="427.8" cy="479.3" r="3.0"/>
<circle cx="544.7" cy="293.8" r="3.0"/>
<circle cx="145.3" cy="215.3" r="3.0"/>
<circle cx="116.1" cy="24.1" r="3.0"/>
<circle cx="325.3" cy="285.4" r="3.0"/>
<circle cx="510.7" cy="229.2" r="3.0"/>
<circle cx="398.4" cy="288.2" r="3.0"/>
<circle cx="540" cy="420.3" r="3.0"/>
<circle cx="364.6" cy="223.5" r="3.0"/>
<circle cx="150.4" cy="88.8" r="3.0"/>
<circle cx="549.7" cy="167.3" r="3.0"/>
<circle cx="33.1" cy="274.3" r="3.0"/>
<circle cx="62.3" cy="465.4" r="3.0"/>
<circle cx="515.7" cy="102.4" r="3.0"/>
<circle cx="189.3" cy="26.8" r="3.0"/>
<circle cx="369.6" cy="97" r="3.0"/>
<circle cx="442.6" cy="99.7" r="3.0"/>
<circle cx="461.9" cy="544.1" r="3.0"/>
<circle cx="296.4" cy="94.1" r="3.0"/>
<circle cx="38" cy="147.8" r="3.0"/>
<circle cx="476.6" cy="164.4" r="3.0"/>
<circle cx="242.6" cy="536" r="3.0"/>
<circle cx="174.5" cy="406.5" r="3.0"/>
<circle cx="579" cy="358.3" r="3.0"/>
<circle cx="408.6" cy="34.9" r="3.0"/>
<circle cx="471.7" cy="291" r="3.0"/>
<circle cx="315.7" cy="538.7" r="3.0"/>
<circle cx="335.5" cy="32.2" r="3.0"/>
<circle cx="169.5" cy="533.1" r="3.0"/>
<circle cx="67.1" cy="338.9" r="3.0"/>
<circle cx="330.7" cy="158.8" r="3.0"/>
<circle cx="72.3" cy="212.6" r="3.0"/>
<circle cx="218.3" cy="218" r="3.0"/>
<circle cx="257.4" cy="156.1" r="3.0"/>
<circle cx="291.6" cy="220.8" r="3.0"/>
<circle cx="388.9" cy="541.3" r="3.0"/>
<circle cx="262.3" cy="29.4" r="3.0"/>
<circle cx="501" cy="482.2" r="3.0"/>
<circle cx="466.9" cy="417.5" r="3.0"/>
<circle cx="432.7" cy="352.7" r="3.0"/>
<circle cx="101.4" cy="403.7" r="3.0"/>
<circle cx="208.5" cy="471.2" r="3.0"/>
<circle cx="140.3" cy="341.8" r="3.0"/>
<circle cx="354.8" cy="476.6" r="3.0"/>
<circle cx="437.5" cy="226.2" r="3.0"/>
<circle cx="179.4" cy="279.8" r="3.0"/>
<circle cx="111.3" cy="150.6" r="3.0"/>
<circle cx="281.6" cy="474" r="3.0"/>
</g>
</g>
<g stroke-width="0.5" stroke-linecap="round">
<line x1="252.4" y1="282.6" x2="286.4" y2="347.1" stroke-width="0.9" stroke-dasharray="3 2.5"/>
<line x1="213.5" y1="344.4" x2="286.4" y2="347.1"/>
<line x1="286.4" y1="347.1" x2="320.6" y2="411.9"/>
<line x1="320.6" y1="411.9" x2="393.7" y2="414.7"/>
<line x1="359.5" y1="349.9" x2="393.7" y2="414.7"/>
<line x1="247.5" y1="409.1" x2="320.6" y2="411.9" opacity="0.3"/>
</g>
<g fill="var(--bg, #fff)" stroke-width="0.5">
<circle cx="252.4" cy="282.6" r="3.0"/>
<circle cx="213.5" cy="344.4" r="3.0"/>
<circle cx="286.4" cy="347.1" r="3.0"/>
<circle cx="320.6" cy="411.9" r="3.0"/>
<circle cx="359.5" cy="349.9" r="3.0"/>
<circle cx="247.5" cy="409.1" r="3.0"/>
<circle cx="393.7" cy="414.7" r="3.0"/>
</g>
</svg>
