<?xml version="1.0" encoding="UTF-8"?>
<svg xmlns="http://www.w3.org/2000/svg" xmlns:xlink="http://www.w3.org/1999/xlink" width="503.805pt" height="504.729pt" viewBox="0 0 503.805 504.729">
<rect x="0" y="0" width="503.805" height="504.729" fill="#ffffff"/>
<defs>
<clipPath id="clip-0">
<path clip-rule="nonzero" d="M 2 2 L 502 2 L 502 502 L 2 502 Z M 2 2 "/>
</clipPath>
<clipPath id="clip-1">
<path clip-rule="nonzero" d="M 225.671875 3.945312 L 199.894531 8.027344 L 174.683594 14.785156 L 150.3125 24.136719 L 127.054688 35.988281 L 105.167969 50.203125 L 84.882812 66.628906 L 66.425781 85.085938 L 50 105.371094 L 35.78125 127.261719 L 23.933594 150.519531 L 14.578125 174.886719 L 7.824219 200.097656 L 3.738281 225.878906 L 2.375 251.945312 L 3.738281 278.007812 L 7.824219 303.789062 L 14.578125 329.003906 L 23.933594 353.371094 L 35.78125 376.625 L 50 398.519531 L 66.425781 418.800781 L 84.882812 437.261719 L 105.167969 453.6875 L 127.054688 467.902344 L 150.3125 479.75 L 174.683594 489.105469 L 199.894531 495.863281 L 225.671875 499.945312 L 251.738281 501.308594 L 277.804688 499.945312 L 303.585938 495.863281 L 328.796875 489.105469 L 353.167969 479.75 L 376.421875 467.902344 L 398.3125 453.6875 L 418.597656 437.261719 L 437.054688 418.800781 L 453.480469 398.519531 L 467.699219 376.625 L 479.546875 353.371094 L 488.902344 329.003906 L 495.65625 303.789062 L 499.738281 278.007812 L 501.105469 251.945312 L 499.738281 225.878906 L 495.65625 200.097656 L 488.902344 174.886719 L 479.546875 150.519531 L 467.699219 127.261719 L 453.480469 105.371094 L 437.054688 85.085938 L 418.597656 66.628906 L 398.3125 50.203125 L 376.421875 35.988281 L 353.167969 24.136719 L 328.796875 14.785156 L 303.585938 8.027344 L 277.804688 3.945312 L 251.738281 2.578125 Z M 225.671875 3.945312 "/>
</clipPath>
<clipPath id="clip-2">
<path clip-rule="nonzero" d="M 0.0390625 0 L 503.574219 0 L 503.574219 504.457031 L 0.0390625 504.457031 Z M 0.0390625 0 "/>
</clipPath>
</defs>
<path fill-rule="nonzero" fill="rgb(100%, 100%, 100%)" fill-opacity="1" d="M 251.738281 501.308594 L 225.675781 499.945312 L 199.894531 495.859375 L 174.679688 489.105469 L 150.3125 479.75 L 127.058594 467.902344 L 105.167969 453.6875 L 84.882812 437.257812 L 66.425781 418.800781 L 50 398.515625 L 35.78125 376.628906 L 23.933594 353.371094 L 14.578125 329.003906 L 7.824219 303.789062 L 3.738281 278.011719 L 2.375 251.945312 L 3.738281 225.878906 L 7.824219 200.097656 L 14.578125 174.886719 L 23.933594 150.519531 L 35.78125 127.261719 L 50 105.371094 L 66.425781 85.085938 L 84.882812 66.628906 L 105.167969 50.203125 L 127.058594 35.988281 L 150.3125 24.136719 L 174.679688 14.785156 L 199.894531 8.027344 L 225.675781 3.945312 L 251.738281 2.578125 L 277.804688 3.945312 L 303.585938 8.027344 L 328.796875 14.785156 L 353.164062 24.136719 L 376.421875 35.988281 L 398.3125 50.203125 L 418.597656 66.628906 L 437.054688 85.085938 L 453.480469 105.371094 L 467.695312 127.261719 L 479.546875 150.519531 L 488.902344 174.886719 L 495.65625 200.097656 L 499.738281 225.878906 L 501.105469 251.945312 L 499.738281 278.011719 L 495.65625 303.789062 L 488.902344 329.003906 L 479.546875 353.371094 L 467.695312 376.628906 L 453.480469 398.515625 L 437.054688 418.800781 L 418.597656 437.257812 L 398.3125 453.6875 L 376.421875 467.902344 L 353.164062 479.75 L 328.796875 489.105469 L 303.585938 495.859375 L 277.804688 499.945312 Z M 251.738281 501.308594 "/>
<g clip-path="url(#clip-0)">
<g clip-path="url(#clip-1)">
<path fill="none" stroke-width="1" stroke-linecap="butt" stroke-linejoin="miter" stroke="rgb(0%, 0%, 0%)" stroke-opacity="1" stroke-miterlimit="4" d="M -0.000437306 -0.000206182 L 86.651532 -0.000206182 M -42.007355 -11.256247 L 128.658449 -11.256247 M -81.426946 -29.637204 L 168.074132 -29.637204 M -117.051532 -54.580277 L 203.698718 -54.580277 M -147.802409 -85.335062 L 234.453504 -85.335062 M -172.74939 -120.959648 L 259.396576 -120.959648 M -191.126439 -160.375331 L 277.777534 -160.375331 M -202.38248 -202.382249 L 289.033574 -202.382249 M -202.38248 -289.034218 L 289.033574 -289.034218 M -191.126439 -331.041135 L 277.777534 -331.041135 M -172.74939 -370.460727 L 259.396576 -370.460727 M -147.802409 -406.085313 L 234.453504 -406.085313 M -117.051532 -436.83619 L 203.698718 -436.83619 M -81.426946 -461.783171 L 168.074132 -461.783171 M -42.007355 -480.164128 L 128.658449 -480.164128 M -0.000437306 -491.420169 L 86.651532 -491.420169 M 85.991021 -491.420169 L 109.503639 -485.987566 L 132.379196 -478.24513 L 154.398825 -468.263211 L 175.343658 -456.135609 L 195.022187 -441.983483 L 213.235086 -425.939717 L 229.814295 -408.160645 L 244.599573 -388.814326 L 257.442403 -368.096176 L 268.225533 -346.193798 L 276.843439 -323.326057 L 283.210137 -299.711823 L 287.267001 -275.57387 L 288.978857 -251.150607 L 288.318347 -226.676536 L 285.301103 -202.382249 L 281.341947 -183.76679 L 275.995328 -165.5109 L 269.292512 -147.720103 L 261.272583 -130.503833 L 251.982441 -113.95589 L 241.476804 -98.177892 L 229.814295 -83.25973 L 217.069175 -69.287388 L 203.307884 -56.342942 L 188.616406 -44.500649 L 173.076817 -33.834769 L 156.782917 -24.400019 L 139.824598 -16.258931 L 122.307385 -9.45059 L 104.325079 -4.021896 L 85.991021 -0.000206182 M 84.036847 -491.420169 L 106.47467 -485.987566 L 128.298881 -478.24513 L 149.310157 -468.263211 L 169.297445 -456.135609 L 188.069237 -441.983483 L 205.453566 -425.939717 L 221.270648 -408.160645 L 235.379782 -388.814326 L 247.636359 -368.096176 L 257.923129 -346.193798 L 266.146292 -323.326057 L 272.219864 -299.711823 L 276.093036 -275.57387 L 277.722817 -251.150607 L 277.097482 -226.676536 L 274.21703 -202.382249 L 265.337264 -165.5109 L 251.286756 -130.503833 L 232.397713 -98.177892 L 209.107871 -69.287388 L 195.979732 -56.342942 L 181.96049 -44.500649 L 167.13222 -33.834769 L 151.584815 -24.400019 L 135.404257 -16.258931 L 118.688255 -9.45059 L 101.53061 -4.021896 L 84.036847 -0.000206182 M 80.847636 -491.420169 L 101.522793 -485.987566 L 121.639057 -478.24513 L 141.00101 -468.263211 L 159.421051 -456.135609 L 176.723305 -441.983483 L 192.743621 -425.939717 L 207.321756 -408.160645 L 220.32092 -388.814326 L 231.616043 -368.096176 L 241.101602 -346.193798 L 248.67598 -323.326057 L 254.276641 -299.711823 L 257.844962 -275.57387 L 259.345768 -251.150607 L 258.767332 -226.676536 L 256.117473 -202.382249 L 247.933394 -165.5109 L 234.985039 -130.503833 L 217.57726 -98.177892 L 196.112616 -69.287388 L 171.091376 -44.500649 L 143.095884 -24.400019 L 128.185539 -16.258931 L 112.778834 -9.45059 L 96.969569 -4.021896 L 80.847636 -0.000206182 M 76.513279 -491.420169 L 94.804344 -485.987566 L 112.59905 -478.24513 L 129.725428 -468.263211 L 146.019328 -456.135609 L 161.324416 -441.983483 L 175.492175 -425.939717 L 188.389722 -408.160645 L 199.88808 -388.814326 L 209.881724 -368.096176 L 218.265129 -346.193798 L 224.971853 -323.326057 L 229.923729 -299.711823 L 233.077765 -275.57387 L 234.406603 -251.150607 L 233.89461 -226.676536 L 231.549601 -202.382249 L 224.311342 -165.5109 L 212.859884 -130.503833 L 197.457088 -98.177892 L 178.474244 -69.287388 L 156.341273 -44.500649 L 131.577985 -24.400019 L 104.762813 -9.45059 L 90.774838 -4.021896 L 76.513279 -0.000206182 M 71.174476 -491.420169 L 86.522556 -485.987566 L 101.452443 -478.24513 L 115.823436 -468.263211 L 129.494835 -456.135609 L 142.337665 -441.983483 L 154.226858 -425.939717 L 165.049071 -408.160645 L 174.698781 -388.814326 L 183.082186 -368.096176 L 190.117211 -346.193798 L 195.741323 -323.326057 L 199.899805 -299.711823 L 202.549664 -275.57387 L 203.663543 -251.150607 L 203.233625 -226.676536 L 201.263818 -202.382249 L 195.190246 -165.5109 L 185.57962 -130.503833 L 172.658624 -98.177892 L 156.7282 -69.287388 L 138.155733 -44.500649 L 117.378959 -24.400019 L 94.874695 -9.45059 L 71.174476 -0.000206182 M 64.987562 -491.420169 L 76.927564 -485.987566 L 88.539264 -478.24513 L 99.717137 -468.263211 L 110.355658 -456.135609 L 120.341486 -441.983483 L 129.592544 -425.939717 L 138.007216 -408.160645 L 145.515151 -388.814326 L 157.509869 -346.193798 L 165.119422 -299.711823 L 168.046774 -251.150607 L 166.178584 -202.382249 L 161.453392 -165.5109 L 153.980632 -130.503833 L 143.928362 -98.177892 L 131.538901 -69.287388 L 117.089741 -44.500649 L 100.928725 -24.400019 L 83.423237 -9.45059 L 64.987562 -0.000206182 M 58.144046 -491.420169 L 66.308584 -485.987566 L 74.254254 -478.24513 L 81.898981 -468.263211 L 89.176324 -456.135609 L 102.33573 -425.939717 L 113.228294 -388.814326 L 121.431915 -346.193798 L 126.637834 -299.711823 L 128.638907 -251.150607 L 127.360878 -202.382249 L 124.132583 -165.5109 L 119.016556 -130.503833 L 112.141773 -98.177892 L 103.664568 -69.287388 L 93.784266 -44.500649 L 82.727551 -24.400019 L 70.756283 -9.45059 L 58.144046 -0.000206182 M 50.847162 -491.420169 L 59.027333 -478.24513 L 66.605618 -456.135609 L 73.284984 -425.939717 L 78.815295 -388.814326 L 82.981594 -346.193798 L 85.623636 -299.711823 L 86.639807 -251.150607 L 85.991021 -202.382249 L 81.754373 -130.503833 L 73.961128 -69.287388 L 68.94281 -44.500649 L 63.330423 -24.400019 L 57.252943 -9.45059 L 50.847162 -0.000206182 M 35.803933 -491.420169 L 27.623762 -478.24513 L 20.045476 -456.135609 L 13.366111 -425.939717 L 7.835799 -388.814326 L 3.669501 -346.193798 L 1.027458 -299.711823 L 0.0112877 -251.150607 L 0.656165 -202.382249 L 4.896722 -130.503833 L 12.689967 -69.287388 L 17.708285 -44.500649 L 23.320671 -24.400019 L 29.398151 -9.45059 L 35.803933 -0.000206182 M 28.507048 -491.420169 L 20.342511 -485.987566 L 12.39684 -478.24513 L 4.748205 -468.263211 L -2.52523 -456.135609 L -15.684635 -425.939717 L -26.577199 -388.814326 L -34.78082 -346.193798 L -39.986739 -299.711823 L -41.987813 -251.150607 L -40.713692 -202.382249 L -37.481488 -165.5109 L -32.365462 -130.503833 L -25.490679 -98.177892 L -17.013473 -69.287388 L -7.133171 -44.500649 L 3.923543 -24.400019 L 15.894811 -9.45059 L 28.507048 -0.000206182 M 21.663532 -491.420169 L 9.723531 -485.987566 L -1.888169 -478.24513 L -13.066042 -468.263211 L -23.704564 -456.135609 L -33.6943 -441.983483 L -42.94145 -425.939717 L -51.356121 -408.160645 L -58.864057 -388.814326 L -70.858775 -346.193798 L -78.468327 -299.711823 L -81.395679 -251.150607 L -79.531398 -202.382249 L -74.802297 -165.5109 L -67.329537 -130.503833 L -57.277268 -98.177892 L -44.887807 -69.287388 L -30.438646 -44.500649 L -14.27763 -24.400019 L 3.227858 -9.45059 L 21.663532 -0.000206182 M 15.476618 -491.420169 L 0.128538 -485.987566 L -14.801349 -478.24513 L -29.172342 -468.263211 L -42.843741 -456.135609 L -55.68657 -441.983483 L -67.575763 -425.939717 L -78.397977 -408.160645 L -88.047686 -388.814326 L -96.431091 -368.096176 L -103.466117 -346.193798 L -109.090229 -323.326057 L -113.24871 -299.711823 L -115.89857 -275.57387 L -117.012449 -251.150607 L -116.58253 -226.676536 L -114.612723 -202.382249 L -108.539152 -165.5109 L -98.928525 -130.503833 L -86.007529 -98.177892 L -70.077105 -69.287388 L -51.504639 -44.500649 L -30.727864 -24.400019 L -8.227508 -9.45059 L 15.476618 -0.000206182 M 10.137816 -491.420169 L -8.15325 -485.987566 L -25.947955 -478.24513 L -43.074333 -468.263211 L -59.368234 -456.135609 L -74.673322 -441.983483 L -88.841081 -425.939717 L -101.738627 -408.160645 L -113.236985 -388.814326 L -123.230629 -368.096176 L -131.617943 -346.193798 L -138.320758 -323.326057 L -143.272634 -299.711823 L -146.430579 -275.57387 L -147.755509 -251.150607 L -147.247424 -226.676536 L -144.898507 -202.382249 L -137.660248 -165.5109 L -126.20879 -130.503833 L -110.809901 -98.177892 L -91.82315 -69.287388 L -69.690179 -44.500649 L -44.92689 -24.400019 L -18.111719 -9.45059 L -4.123744 -4.021896 L 10.137816 -0.000206182 M 5.803459 -491.420169 L -14.871699 -485.987566 L -34.987963 -478.24513 L -54.349916 -468.263211 L -72.769957 -456.135609 L -90.07221 -441.983483 L -106.092526 -425.939717 L -120.670662 -408.160645 L -133.673733 -388.814326 L -144.968857 -368.096176 L -154.450508 -346.193798 L -162.024885 -323.326057 L -167.625547 -299.711823 L -171.193868 -275.57387 L -172.698582 -251.150607 L -172.120146 -226.676536 L -169.466378 -202.382249 L -161.282299 -165.5109 L -148.333944 -130.503833 L -130.926165 -98.177892 L -109.461522 -69.287388 L -84.440282 -44.500649 L -56.44479 -24.400019 L -41.534445 -16.258931 L -26.127739 -9.45059 L -10.318474 -4.021896 L 5.803459 -0.000206182 M 2.614247 -491.420169 L -19.823575 -485.987566 L -41.647787 -478.24513 L -62.659062 -468.263211 L -82.64635 -456.135609 L -101.422051 -441.983483 L -118.802472 -425.939717 L -134.623462 -408.160645 L -148.728687 -388.814326 L -160.985265 -368.096176 L -171.272035 -346.193798 L -179.495198 -323.326057 L -185.572678 -299.711823 L -189.441942 -275.57387 L -191.071723 -251.150607 L -190.446387 -226.676536 L -187.565935 -202.382249 L -178.68617 -165.5109 L -164.635661 -130.503833 L -145.750527 -98.177892 L -122.456776 -69.287388 L -109.328638 -56.342942 L -95.309396 -44.500649 L -80.481126 -33.834769 L -64.93372 -24.400019 L -48.753162 -16.258931 L -32.037161 -9.45059 L -14.883424 -4.021896 L 2.614247 -0.000206182 M 0.656165 -491.420169 L -22.852544 -485.987566 L -45.728101 -478.24513 L -67.74773 -468.263211 L -88.692564 -456.135609 L -108.371093 -441.983483 L -126.5879 -425.939717 L -143.163201 -408.160645 L -157.948479 -388.814326 L -170.791308 -368.096176 L -181.574439 -346.193798 L -190.192344 -323.326057 L -196.559042 -299.711823 L -200.619815 -275.57387 L -202.327763 -251.150607 L -201.667252 -226.676536 L -198.650008 -202.382249 L -194.690852 -183.76679 L -189.344233 -165.5109 L -182.641417 -147.720103 L -174.621489 -130.503833 L -165.331347 -113.95589 L -154.825709 -98.177892 L -143.163201 -83.25973 L -130.41808 -69.287388 L -116.656789 -56.342942 L -101.965311 -44.500649 L -86.425722 -33.834769 L -70.131822 -24.400019 L -53.173503 -16.258931 L -35.65629 -9.45059 L -17.677892 -4.021896 L 0.656165 -0.000206182 M -206.173577 -245.710187 L 292.824671 -245.710187 M 43.323593 -495.207357 L 67.778122 -494.007495 L 91.998151 -490.415723 L 115.749178 -484.467219 L 138.804519 -476.216697 L 160.93749 -465.750143 L 181.940949 -453.161356 L 201.607752 -438.575404 L 219.746392 -422.132987 L 236.192718 -403.990438 L 250.774762 -384.323635 L 263.363549 -363.324084 L 273.834011 -341.187205 L 282.080624 -318.135772 L 288.029129 -294.384745 L 291.624809 -270.164717 L 292.824671 -245.710187 L 291.624809 -221.255658 L 288.029129 -197.03563 L 282.080624 -173.284603 L 273.834011 -150.229262 L 263.363549 -128.096291 L 250.774762 -107.09674 L 236.192718 -87.429936 L 219.746392 -69.287388 L 201.607752 -52.841062 L 181.940949 -38.259018 L 160.93749 -25.670232 L 138.804519 -15.199769 L 115.749178 -6.953156 L 91.998151 -1.004651 L 67.778122 2.58712 L 43.323593 3.790891 M 43.323593 -495.207357 L 43.323593 3.790891 M 43.323593 -495.207357 L 18.869064 -494.007495 L -5.350965 -490.415723 L -29.101992 -484.467219 L -52.153424 -476.216697 L -74.286395 -465.750143 L -95.289854 -453.161356 L -114.956658 -438.575404 L -133.099206 -422.132987 L -149.541624 -403.990438 L -164.127576 -384.323635 L -176.712454 -363.324084 L -187.182917 -341.187205 L -195.433438 -318.135772 L -201.381943 -294.384745 L -204.973714 -270.164717 L -206.173577 -245.710187 L -204.973714 -221.255658 L -201.381943 -197.03563 L -195.433438 -173.284603 L -187.182917 -150.229262 L -176.712454 -128.096291 L -164.127576 -107.09674 L -149.541624 -87.429936 L -133.099206 -69.287388 L -114.956658 -52.841062 L -95.289854 -38.259018 L -74.286395 -25.670232 L -52.153424 -15.199769 L -29.101992 -6.953156 L -5.350965 -1.004651 L 18.869064 2.58712 L 43.323593 3.790891 M 43.323593 -495.207357 L 43.323593 -495.207357 " transform="matrix(0.999463, 0, 0, -0.999463, 208.437937, 6.366981)"/>
</g>
</g>
<g clip-path="url(#clip-2)">
<path fill="none" stroke-width="1" stroke-linecap="butt" stroke-linejoin="miter" stroke="rgb(0%, 0%, 0%)" stroke-opacity="1" stroke-miterlimit="10" d="M -0.00160692 0.00164274 L -26.0781 1.365656 L -51.873193 5.453787 L -77.101575 12.21132 L -101.481846 21.571812 L -124.748238 33.425829 L -146.650616 47.648305 L -166.946664 64.086814 L -185.413605 82.553755 L -201.848206 102.849803 L -216.07459 124.748273 L -227.928608 148.018574 L -237.2891 172.398844 L -244.046632 197.627227 L -248.134764 223.418411 L -249.498777 249.498813 L -248.134764 275.579214 L -244.046632 301.374307 L -237.2891 326.598781 L -227.928608 350.979052 L -216.07459 374.249352 L -201.848206 396.15173 L -185.413605 416.447778 L -166.946664 434.914719 L -146.650616 451.34932 L -124.748238 465.571796 L -101.481846 477.429722 L -77.101575 486.786305 L -51.873193 493.547746 L -26.0781 497.631969 L -0.00160692 498.999891 L 26.078795 497.631969 L 51.873887 493.547746 L 77.098361 486.786305 L 101.478632 477.429722 L 124.748932 465.571796 L 146.651311 451.34932 L 166.947359 434.914719 L 185.4143 416.447778 L 201.8489 396.15173 L 216.071376 374.249352 L 227.929302 350.979052 L 237.289794 326.598781 L 244.047327 301.374307 L 248.13155 275.579214 L 249.499471 249.498813 L 248.13155 223.418411 L 244.047327 197.627227 L 237.289794 172.398844 L 227.929302 148.018574 L 216.071376 124.748273 L 201.8489 102.849803 L 185.4143 82.553755 L 166.947359 64.086814 L 146.651311 47.648305 L 124.748932 33.425829 L 101.478632 21.571812 L 77.098361 12.21132 L 51.873887 5.453787 L 26.078795 1.365656 Z M -0.00160692 0.00164274 " transform="matrix(0.999463, 0, 0, -0.999463, 251.739887, 501.310236)"/>
</g>
</svg>
